<svg width="15" height="15" viewBox="0 0 15 15" fill="none" xmlns="http://www.w3.org/2000/svg">
<path d="M0.633814 1.89192e-08C0.465716 1.89192e-08 0.304503 0.068711 0.18564 0.191017C0.0667767 0.313324 0 0.479207 0 0.652174C0 0.825141 0.0667767 0.991024 0.18564 1.11333C0.304503 1.23564 0.465716 1.30435 0.633814 1.30435H1.762C1.85413 1.30451 1.94388 1.33444 2.0186 1.3899C2.09331 1.44537 2.14921 1.52357 2.17842 1.61348L4.26811 8.06543C4.36128 8.35239 4.37268 8.66022 4.3017 8.9537L4.12993 9.66261C3.87704 10.7022 4.6636 11.7391 5.70433 11.7391H13.3101C13.4782 11.7391 13.6394 11.6704 13.7583 11.5481C13.8771 11.4258 13.9439 11.2599 13.9439 11.087C13.9439 10.914 13.8771 10.7481 13.7583 10.6258C13.6394 10.5035 13.4782 10.4348 13.3101 10.4348H5.70433C5.45714 10.4348 5.29869 10.2261 5.3589 9.98022L5.48883 9.44674C5.51072 9.3565 5.56127 9.27637 5.63247 9.21907C5.70366 9.16177 5.79141 9.13057 5.8818 9.13043H12.6763C12.8095 9.13061 12.9393 9.0876 13.0474 9.00752C13.1555 8.92745 13.2363 8.81437 13.2784 8.68435L14.9675 3.46696C14.9993 3.36891 15.0079 3.26451 14.9927 3.16236C14.9776 3.06021 14.939 2.96323 14.8803 2.87941C14.8215 2.79559 14.7443 2.72734 14.6549 2.68027C14.5655 2.6332 14.4665 2.60867 14.366 2.6087H4.15465C4.06242 2.60867 3.97252 2.5788 3.89768 2.52333C3.82284 2.46786 3.76684 2.38958 3.7376 2.29957L3.13675 0.446087C3.09469 0.31617 3.01397 0.203169 2.90601 0.123103C2.79805 0.0430364 2.66834 -3.29547e-05 2.53526 1.89192e-08H0.633814ZM5.07051 12.3913C4.73432 12.3913 4.41189 12.5287 4.17416 12.7733C3.93644 13.018 3.80289 13.3497 3.80289 13.6957C3.80289 14.0416 3.93644 14.3734 4.17416 14.618C4.41189 14.8626 4.73432 15 5.07051 15C5.40671 15 5.72914 14.8626 5.96686 14.618C6.20459 14.3734 6.33814 14.0416 6.33814 13.6957C6.33814 13.3497 6.20459 13.018 5.96686 12.7733C5.72914 12.5287 5.40671 12.3913 5.07051 12.3913ZM12.6763 12.3913C12.3401 12.3913 12.0177 12.5287 11.7799 12.7733C11.5422 13.018 11.4087 13.3497 11.4087 13.6957C11.4087 14.0416 11.5422 14.3734 11.7799 14.618C12.0177 14.8626 12.3401 15 12.6763 15C13.0125 15 13.3349 14.8626 13.5726 14.618C13.8104 14.3734 13.9439 14.0416 13.9439 13.6957C13.9439 13.3497 13.8104 13.018 13.5726 12.7733C13.3349 12.5287 13.0125 12.3913 12.6763 12.3913Z" fill="white"/>
</svg>
